<svg width="425" height="100" viewBox="0 0 425 100" fill="none" xmlns="http://www.w3.org/2000/svg">
<path d="M114.93 25.0983H137.819C147.09 25.0983 154.001 29.1605 154.001 37.7189C154.001 43.9934 150.794 47.4867 145.232 49.3408V49.4841C151.864 50.841 155.286 54.4059 155.286 60.4655C155.286 72.374 144.802 74.8686 135.889 74.8686H114.93V25.0983ZM128.191 44.7814H131.899C136.248 44.7814 140.744 43.7111 140.744 39.5014C140.744 34.942 136.463 34.5121 132.038 34.5121H128.191V44.7814ZM128.191 65.459H132.114C136.964 65.459 142.025 64.7426 142.025 59.6817C142.025 54.2627 136.821 53.7654 132.253 53.7654H128.191V65.459Z" fill="#00529C"/>
<path d="M172.694 25.0983H188.951L208.132 74.8686H193.586L189.878 64.2454H171.198L167.275 74.8686H153.798L172.694 25.0983ZM180.822 35.3676H180.679L174.261 54.8358H186.743L180.822 35.3676Z" fill="#00529C"/>
<path d="M209.978 25.0983H226.876L243.706 58.898H243.845L243.634 25.0983H255.758V74.8686H239.281L221.886 40.8541H221.747L222.169 74.8686H209.978V25.0983Z" fill="#00529C"/>
<path d="M260.258 25.0983H273.519V45.4219H273.662L288.634 25.0983H304.605L286.211 48.2705L306.033 74.8686H289.131L273.662 52.2653H273.519V74.8686H260.258V25.0983Z" fill="#00529C"/>
<path d="M322.48 25.0983H345.37C354.636 25.0983 361.555 29.1605 361.555 37.7189C361.555 43.9934 358.348 47.4867 352.786 49.3408V49.4841C359.419 50.841 362.836 54.4059 362.836 60.4655C362.836 72.374 352.356 74.8686 343.444 74.8686H322.48V25.0983ZM335.741 44.7814H339.449C343.802 44.7814 348.29 43.7111 348.29 39.5014C348.29 34.942 344.017 34.5121 339.592 34.5121H335.741V44.7814ZM335.741 65.459H339.664C344.51 65.459 349.575 64.7426 349.575 59.6817C349.575 54.2627 344.371 53.7654 339.807 53.7654H335.741V65.459Z" fill="#00529C"/>
<path d="M365.778 25.0983H389.452C398.293 25.0983 405.494 29.0931 405.494 37.6515C405.494 44.28 402.359 48.7003 395.941 50.1963V50.3395C400.214 51.4815 400.501 55.2614 402.999 61.321L407.845 74.8686H394.015L391.163 65.8888C388.453 57.3304 386.738 55.1855 381.82 55.1855H379.039V74.8686H365.778V25.0983ZM379.039 45.7759H382.533C386.814 45.7759 392.233 45.6326 392.233 39.9986C392.233 35.3676 387.598 34.5121 382.533 34.5121H379.039V45.7759Z" fill="#00529C"/>
<path d="M411.501 25.0972H424.762V74.8675H411.501V25.0972Z" fill="#00529C"/>
<path d="M84.6656 1.08297e-06H15.2585C6.83072 1.08297e-06 0 6.99929 0 15.6336V15.7979V84.3706C0 92.9206 6.7043 99.8736 15.0225 100H84.6277C93.0555 100 99.8904 93.0049 99.8904 84.3706L99.9199 15.6336C99.9199 6.99929 93.0934 1.08297e-06 84.6656 1.08297e-06ZM23.5051 91.9894L19.721 92.0315C15.1363 92.0315 11.4197 88.2643 11.4197 83.6164L11.3986 82.9548V19.4766L11.4239 16.0549C11.5966 11.5587 15.0141 7.9432 19.4851 7.9432H27.1838C34.1621 7.9432 39.8171 14.0112 39.8171 21.1622C39.8171 24.7019 38.4307 27.9129 36.1847 30.2474L16.5438 50.1791L34.9543 68.9267C37.3267 71.375 38.7594 74.586 38.7594 78.1046C38.7594 85.7739 31.9329 91.9894 23.5051 91.9894ZM80.102 91.9262L45.7798 91.9135C45.7798 91.9135 49.7451 83.3382 49.7451 78.0287C49.7451 71.552 47.5833 65.7705 44.1953 61.9443L32.4554 49.9768L44.4355 37.5964C48.0047 34.2463 50.3729 28.2963 50.3729 21.5162C50.3729 16.1477 48.8896 11.3944 46.5004 7.9432H54.8144C61.7926 7.9432 67.4519 14.0112 67.4519 21.1622C67.4519 24.7019 66.0655 27.9129 63.8195 30.2474L44.5535 49.9726L84.5687 90.7758C83.3003 91.5722 81.7032 91.9262 80.102 91.9262ZM88.4834 79.1876L59.8078 49.96L73.4651 36.0794C76.242 32.6029 78.0077 27.3693 78.0077 21.5162C78.0077 16.1139 76.5033 11.2385 74.0929 7.78728L80.2031 7.9727C84.7878 7.9727 88.5045 11.7399 88.5045 16.3878L88.4834 79.1876Z" fill="#00529C"/>
</svg>
