<svg width="360" height="100" viewBox="0 0 360 100" fill="none" xmlns="http://www.w3.org/2000/svg">
<path d="M170.233 69.6163C171 69.6163 171.661 69.5293 172.216 69.3555C172.771 69.1816 173.224 68.939 173.575 68.6277C173.936 68.3074 174.199 67.9321 174.366 67.5019C174.532 67.0625 174.616 66.5819 174.616 66.0602C174.616 65.0441 174.25 64.2432 173.52 63.6573C172.789 63.0624 171.694 62.7649 170.233 62.7649H165.933V69.6163L170.233 69.6163ZM165.933 54.1559V60.87H169.484C170.242 60.87 170.898 60.7877 171.453 60.623C172.017 60.4583 172.48 60.2294 172.84 59.9364C173.21 59.6435 173.483 59.2911 173.659 58.8792C173.834 58.4581 173.922 58.0005 173.922 57.5062C173.922 56.3437 173.571 55.497 172.868 54.9661C172.165 54.426 171.074 54.1559 169.595 54.1559L165.933 54.1559ZM169.595 52.0551C170.815 52.0551 171.865 52.1741 172.743 52.4121C173.631 52.6501 174.357 52.9888 174.921 53.4282C175.494 53.8675 175.915 54.4076 176.183 55.0483C176.451 55.6799 176.585 56.3939 176.585 57.1903C176.585 57.6754 176.507 58.1423 176.349 58.5908C176.201 59.0302 175.975 59.442 175.67 59.8265C175.365 60.211 174.976 60.5588 174.505 60.87C174.042 61.1721 173.497 61.4192 172.868 61.6114C174.329 61.8861 175.425 62.4032 176.155 63.163C176.895 63.9136 177.265 64.9022 177.265 66.1287C177.265 66.9617 177.108 67.7215 176.793 68.408C176.488 69.0945 176.035 69.6849 175.434 70.1792C174.842 70.6735 174.112 71.058 173.242 71.3326C172.373 71.598 171.384 71.7307 170.274 71.7307H163.256V52.0551H169.595Z" fill="#00A39D"/>
<path d="M191.857 64.4262L188.736 56.4214C188.643 56.1834 188.546 55.9088 188.445 55.5976C188.343 55.2772 188.246 54.9385 188.153 54.5815C187.959 55.323 187.76 55.9408 187.557 56.4351L184.436 64.4262H191.857ZM197.46 71.7307H195.38C195.139 71.7307 194.945 71.6713 194.797 71.5523C194.649 71.4334 194.538 71.2823 194.464 71.0992L192.606 66.3485H183.687L181.828 71.0992C181.773 71.2639 181.667 71.4104 181.509 71.5386C181.352 71.6667 181.158 71.7307 180.927 71.7307H178.846L186.794 52.0551H189.513L197.46 71.7307Z" fill="#00A39D"/>
<path d="M216.574 52.0551V71.7307H215.228C215.015 71.7307 214.835 71.6941 214.687 71.6209C214.549 71.5477 214.41 71.4241 214.271 71.2502L202.773 56.4214C202.791 56.6502 202.805 56.8745 202.814 57.0942C202.823 57.3138 202.828 57.5198 202.828 57.712V71.7307H200.47V52.0552H201.857C201.977 52.0552 202.079 52.0643 202.162 52.0826C202.245 52.0914 202.319 52.1143 202.384 52.1512C202.449 52.1787 202.514 52.2244 202.578 52.2885C202.643 52.3434 202.712 52.4166 202.786 52.5081L214.285 67.3232C214.267 67.0852 214.248 66.8563 214.229 66.6366C214.22 66.4078 214.216 66.1927 214.216 65.9913V52.055L216.574 52.0551Z" fill="#00A39D"/>
<path d="M224.716 60.6778H225.728C226.079 60.6778 226.361 60.6366 226.574 60.5542C226.787 60.4627 226.981 60.3117 227.157 60.1011L233.773 52.6867C233.958 52.4487 234.152 52.2839 234.355 52.1924C234.559 52.1009 234.809 52.0551 235.104 52.0551H237.379L229.806 60.5268C229.621 60.7465 229.441 60.9295 229.265 61.076C229.099 61.2132 228.918 61.3277 228.724 61.4192C228.974 61.5016 229.2 61.6252 229.404 61.79C229.607 61.9456 229.806 62.1515 230 62.4078L237.906 71.7307H235.576C235.4 71.7307 235.248 71.7216 235.118 71.7033C234.998 71.6759 234.892 71.6392 234.799 71.5935C234.707 71.5386 234.624 71.4791 234.55 71.4151C234.485 71.3418 234.42 71.2595 234.355 71.168L227.503 63.3554C227.319 63.1266 227.12 62.9664 226.907 62.8748C226.694 62.7742 226.371 62.7238 225.936 62.7238H224.716V71.731H222.039V52.0554H224.716V60.6778Z" fill="#00A39D"/>
<path d="M258.462 55.1307C258.379 55.2679 258.286 55.3732 258.185 55.4465C258.092 55.5106 257.977 55.5426 257.838 55.5426C257.681 55.5426 257.496 55.4648 257.283 55.3092C257.07 55.1537 256.802 54.9843 256.479 54.8012C256.164 54.609 255.781 54.4351 255.327 54.2794C254.884 54.1239 254.343 54.0461 253.705 54.0461C253.104 54.0461 252.572 54.1285 252.11 54.2932C251.656 54.4487 251.273 54.6638 250.958 54.9385C250.653 55.2131 250.422 55.5381 250.265 55.9134C250.108 56.2795 250.029 56.6777 250.029 57.1079C250.029 57.6571 250.163 58.1148 250.431 58.4809C250.709 58.8379 251.069 59.1446 251.513 59.4009C251.966 59.6572 252.475 59.8814 253.039 60.0737C253.612 60.2567 254.195 60.4489 254.786 60.6503C255.388 60.8517 255.97 61.0806 256.534 61.3369C257.107 61.584 257.616 61.8998 258.06 62.2843C258.513 62.6687 258.874 63.1401 259.142 63.6985C259.419 64.2569 259.558 64.9434 259.558 65.758C259.558 66.6185 259.41 67.4286 259.114 68.1883C258.818 68.9389 258.384 69.5934 257.81 70.1518C257.246 70.7101 256.548 71.1495 255.716 71.4698C254.893 71.7902 253.954 71.9504 252.9 71.9504C251.606 71.9504 250.431 71.7216 249.377 71.2639C248.323 70.797 247.421 70.17 246.672 69.3828L247.449 68.1196C247.523 68.019 247.611 67.9366 247.713 67.8726C247.824 67.7994 247.944 67.7628 248.073 67.7628C248.193 67.7628 248.327 67.8131 248.475 67.9138C248.633 68.0053 248.808 68.1242 249.003 68.2707C249.197 68.4171 249.419 68.5773 249.668 68.7513C249.918 68.9252 250.2 69.0853 250.514 69.2318C250.838 69.3782 251.203 69.5018 251.61 69.6026C252.017 69.6941 252.475 69.7398 252.983 69.7398C253.621 69.7398 254.19 69.6529 254.689 69.4791C255.189 69.3052 255.609 69.0626 255.952 68.7513C256.303 68.4309 256.571 68.0511 256.756 67.6117C256.941 67.1723 257.033 66.6826 257.033 66.1425C257.033 65.5476 256.895 65.0624 256.617 64.6871C256.349 64.3027 255.993 63.9823 255.549 63.726C255.106 63.4697 254.597 63.2546 254.024 63.0807C253.45 62.8976 252.868 62.7146 252.276 62.5315C251.684 62.3392 251.102 62.1196 250.528 61.8724C249.955 61.6253 249.446 61.3049 249.003 60.9113C248.559 60.5177 248.198 60.028 247.921 59.4421C247.652 58.8471 247.518 58.1149 247.518 57.2453C247.518 56.5496 247.652 55.8768 247.921 55.2269C248.198 54.577 248.596 54.0004 249.113 53.4969C249.641 52.9935 250.283 52.5907 251.041 52.2886C251.809 51.9866 252.687 51.8355 253.677 51.8355C254.786 51.8355 255.794 52.0094 256.701 52.3572C257.616 52.7051 258.421 53.2086 259.114 53.8676L258.462 55.1307Z" fill="#00A39D"/>
<path d="M270.793 63.8907V71.7307H268.102V63.8907L260.82 52.0551H263.178C263.418 52.0551 263.608 52.1146 263.747 52.2336C263.885 52.3434 264.006 52.4898 264.107 52.6729L268.657 60.3207C268.823 60.6411 268.976 60.9432 269.115 61.2269C269.253 61.5015 269.373 61.7808 269.475 62.0645C269.577 61.7808 269.692 61.5015 269.822 61.2269C269.951 60.9432 270.095 60.6411 270.252 60.3207L274.788 52.6729C274.871 52.5174 274.986 52.3755 275.134 52.2473C275.282 52.1192 275.472 52.0551 275.703 52.0551H278.075L270.793 63.8907Z" fill="#00A39D"/>
<path d="M289.643 64.4262L286.522 56.4214C286.429 56.1834 286.332 55.9088 286.231 55.5976C286.129 55.2772 286.032 54.9385 285.939 54.5815C285.745 55.323 285.546 55.9408 285.343 56.4351L282.222 64.4262H289.643ZM295.246 71.7307H293.166C292.925 71.7307 292.731 71.6713 292.583 71.5523C292.435 71.4334 292.324 71.2823 292.25 71.0992L290.392 66.3485H281.473L279.614 71.0992C279.559 71.2639 279.453 71.4104 279.295 71.5386C279.138 71.6667 278.944 71.7307 278.713 71.7307H276.632L284.58 52.0551H287.299L295.246 71.7307Z" fill="#00A39D"/>
<path d="M303.763 61.584C304.539 61.584 305.224 61.4924 305.816 61.3093C306.417 61.1171 306.916 60.8517 307.314 60.513C307.72 60.1652 308.026 59.7532 308.229 59.2773C308.432 58.8013 308.534 58.2749 308.534 57.6983C308.534 56.5266 308.146 55.6433 307.369 55.0483C306.592 54.4533 305.427 54.1558 303.874 54.1558H300.933V61.584H303.763ZM312.945 71.7307H310.559C310.069 71.7307 309.708 71.543 309.477 71.1678L304.318 64.1378C304.16 63.9181 303.989 63.7625 303.804 63.671C303.629 63.5703 303.351 63.52 302.972 63.52H300.933V71.7307H298.256V52.0551H303.874C305.131 52.0551 306.218 52.1833 307.133 52.4396C308.049 52.6867 308.802 53.0483 309.394 53.5243C309.995 54.0003 310.439 54.5769 310.726 55.2543C311.012 55.9225 311.156 56.6731 311.156 57.5061C311.156 58.2018 311.045 58.8517 310.823 59.4558C310.601 60.0599 310.277 60.6046 309.852 61.0897C309.436 61.5657 308.922 61.973 308.312 62.3117C307.711 62.6504 307.027 62.9067 306.259 63.0806C306.602 63.2728 306.897 63.552 307.147 63.9182L312.945 71.7307Z" fill="#00A39D"/>
<path d="M318.715 71.7307H316.024V52.0551H318.715V71.7307Z" fill="#00A39D"/>
<path d="M334.735 64.4262L331.615 56.4214C331.522 56.1834 331.425 55.9088 331.323 55.5976C331.222 55.2772 331.125 54.9385 331.032 54.5815C330.838 55.323 330.639 55.9408 330.436 56.4351L327.315 64.4262H334.735ZM340.339 71.7307H338.259C338.018 71.7307 337.824 71.6713 337.676 71.5523C337.528 71.4334 337.417 71.2823 337.343 71.0992L335.484 66.3485H326.566L324.707 71.0992C324.652 71.2639 324.545 71.4104 324.388 71.5386C324.231 71.6667 324.037 71.7307 323.806 71.7307H321.725L329.673 52.0551H332.391L340.339 71.7307Z" fill="#00A39D"/>
<path d="M359.452 52.0551V71.7307H356.762V62.7785H346.04V71.7307H343.349V52.0551H346.04V60.8288H356.762V52.0551H359.452Z" fill="#00A39D"/>
<path d="M165.947 99.1914H163.256V79.5158H165.947V99.1914Z" fill="#00A39D"/>
<path d="M187.515 79.5158V99.1914H186.17C185.957 99.1914 185.777 99.1548 185.629 99.0816C185.49 99.0084 185.351 98.8848 185.213 98.7109L173.714 83.8821C173.732 84.1109 173.746 84.3352 173.756 84.5549C173.765 84.7746 173.769 84.9805 173.769 85.1728V99.1914H171.411V79.5158H172.799C172.919 79.5158 173.02 79.525 173.104 79.5433C173.187 79.5521 173.261 79.575 173.326 79.6119C173.39 79.6394 173.455 79.6851 173.52 79.7492C173.585 79.8041 173.654 79.8773 173.728 79.9688L185.226 94.7839C185.208 94.5459 185.189 94.317 185.171 94.0973C185.162 93.8685 185.157 93.6534 185.157 93.452V79.5157L187.515 79.5158Z" fill="#00A39D"/>
<path d="M210.207 89.3605C210.207 90.8342 209.971 92.1752 209.5 93.3835C209.028 94.5917 208.362 95.6261 207.502 96.4865C206.642 97.347 205.607 98.0152 204.395 98.4912C203.193 98.958 201.862 99.1914 200.401 99.1914H192.98V79.5158H200.401C201.862 79.5158 203.193 79.7538 204.395 80.2298C205.607 80.6967 206.642 81.3649 207.502 82.2344C208.362 83.0949 209.028 84.1292 209.5 85.3375C209.971 86.5458 210.207 87.8868 210.207 89.3605ZM207.447 89.3605C207.447 88.1522 207.28 87.0721 206.947 86.1201C206.615 85.1681 206.143 84.3627 205.533 83.7036C204.922 83.0445 204.183 82.5411 203.313 82.1932C202.444 81.8454 201.473 81.6715 200.401 81.6715H195.671V97.0358H200.401C201.473 97.0358 202.444 96.8619 203.313 96.514C204.183 96.1662 204.922 95.6673 205.533 95.0174C206.143 94.3584 206.615 93.5528 206.947 92.6009C207.28 91.6489 207.447 90.5688 207.447 89.3605Z" fill="#00A39D"/>
<path d="M232.83 89.3605C232.83 90.8342 232.594 92.1889 232.122 93.4247C231.651 94.6513 230.985 95.7085 230.125 96.5964C229.265 97.4843 228.229 98.1754 227.018 98.6697C225.816 99.1548 224.484 99.3974 223.023 99.3974C221.562 99.3974 220.231 99.1548 219.029 98.6697C217.827 98.1754 216.795 97.4843 215.936 96.5964C215.076 95.7085 214.41 94.6513 213.938 93.4247C213.467 92.1889 213.231 90.8342 213.231 89.3605C213.231 87.8868 213.467 86.5366 213.938 85.31C214.41 84.0743 215.076 83.0125 215.936 82.1246C216.795 81.2276 217.827 80.5319 219.029 80.0376C220.231 79.5433 221.562 79.2961 223.023 79.2961C224.484 79.2961 225.816 79.5433 227.018 80.0376C228.229 80.5319 229.265 81.2276 230.125 82.1246C230.985 83.0125 231.651 84.0743 232.122 85.31C232.594 86.5366 232.83 87.8868 232.83 89.3605ZM230.069 89.3605C230.069 88.1522 229.903 87.0675 229.57 86.1064C229.237 85.1453 228.766 84.3352 228.155 83.6761C227.545 83.0079 226.805 82.4953 225.936 82.1383C225.067 81.7813 224.096 81.6028 223.023 81.6028C221.96 81.6028 220.994 81.7813 220.124 82.1383C219.255 82.4953 218.511 83.0079 217.891 83.6761C217.281 84.3352 216.809 85.1453 216.476 86.1064C216.144 87.0675 215.977 88.1522 215.977 89.3605C215.977 90.5688 216.144 91.6534 216.476 92.6146C216.809 93.5665 217.281 94.3767 217.891 95.0448C218.511 95.7039 219.255 96.212 220.124 96.569C220.994 96.9168 221.96 97.0907 223.023 97.0907C224.096 97.0907 225.067 96.9168 225.936 96.569C226.805 96.212 227.545 95.7039 228.155 95.0448C228.766 94.3767 229.237 93.5665 229.57 92.6146C229.903 91.6534 230.069 90.5688 230.069 89.3605Z" fill="#00A39D"/>
<path d="M253.164 79.5158V99.1914H251.818C251.606 99.1914 251.425 99.1548 251.277 99.0816C251.139 99.0084 251 98.8848 250.861 98.7109L239.363 83.8821C239.381 84.1109 239.395 84.3352 239.404 84.5549C239.414 84.7746 239.418 84.9805 239.418 85.1728V99.1914H237.06V79.5158H238.447C238.567 79.5158 238.669 79.525 238.752 79.5433C238.836 79.5521 238.91 79.575 238.974 79.6119C239.039 79.6394 239.104 79.6851 239.168 79.7492C239.233 79.8041 239.303 79.8773 239.377 79.9688L250.875 94.7839C250.857 94.5459 250.838 94.317 250.82 94.0973C250.81 93.8685 250.806 93.6534 250.806 93.452V79.5157L253.164 79.5158Z" fill="#00A39D"/>
<path d="M270.89 97.0221L270.876 99.1914H258.629V79.5158H270.876V81.6852H261.32V88.2209H269.059V90.3079H261.32V97.0221H270.89Z" fill="#00A39D"/>
<path d="M285.204 82.5915C285.121 82.7287 285.029 82.834 284.927 82.9073C284.835 82.9713 284.719 83.0034 284.58 83.0034C284.423 83.0034 284.238 82.9255 284.025 82.77C283.813 82.6144 283.545 82.4451 283.221 82.262C282.906 82.0698 282.523 81.8958 282.07 81.7402C281.626 81.5847 281.085 81.5069 280.447 81.5069C279.846 81.5069 279.314 81.5893 278.852 81.754C278.399 81.9095 278.015 82.1246 277.7 82.3993C277.395 82.6739 277.164 82.9988 277.007 83.3741C276.85 83.7403 276.771 84.1385 276.771 84.5687C276.771 85.1179 276.905 85.5756 277.173 85.9417C277.451 86.2987 277.811 86.6053 278.255 86.8616C278.708 87.1179 279.217 87.3422 279.781 87.5345C280.354 87.7175 280.937 87.9097 281.529 88.1111C282.13 88.3125 282.712 88.5413 283.276 88.7976C283.85 89.0448 284.358 89.3606 284.802 89.745C285.255 90.1295 285.616 90.6009 285.884 91.1593C286.161 91.7177 286.3 92.4042 286.3 93.2188C286.3 94.0793 286.152 94.8893 285.856 95.6491C285.56 96.3997 285.126 97.0541 284.552 97.6125C283.988 98.1709 283.29 98.6103 282.458 98.9306C281.635 99.251 280.696 99.4112 279.642 99.4112C278.348 99.4112 277.173 99.1824 276.119 98.7247C275.065 98.2578 274.163 97.6308 273.414 96.8436L274.191 95.5804C274.265 95.4798 274.353 95.3974 274.455 95.3334C274.566 95.2602 274.686 95.2235 274.815 95.2235C274.936 95.2235 275.07 95.2739 275.218 95.3745C275.375 95.466 275.551 95.585 275.745 95.7315C275.939 95.8779 276.161 96.0381 276.41 96.2121C276.66 96.3859 276.942 96.5461 277.257 96.6926C277.58 96.839 277.945 96.9626 278.352 97.0634C278.759 97.1549 279.217 97.2006 279.726 97.2006C280.364 97.2006 280.932 97.1137 281.432 96.9398C281.931 96.766 282.352 96.5234 282.694 96.2121C283.045 95.8917 283.313 95.5119 283.498 95.0725C283.683 94.6331 283.776 94.1434 283.776 93.6033C283.776 93.0084 283.637 92.5232 283.36 92.1479C283.091 91.7635 282.735 91.4431 282.292 91.1868C281.848 90.9305 281.339 90.7154 280.766 90.5415C280.192 90.3584 279.61 90.1753 279.018 89.9923C278.426 89.8 277.844 89.5804 277.27 89.3332C276.697 89.0861 276.189 88.7657 275.745 88.3721C275.301 87.9785 274.94 87.4888 274.663 86.9029C274.395 86.3079 274.261 85.5757 274.261 84.7061C274.261 84.0104 274.395 83.3376 274.663 82.6877C274.94 82.0378 275.338 81.4611 275.856 80.9577C276.383 80.4542 277.025 80.0515 277.784 79.7494C278.551 79.4474 279.43 79.2963 280.419 79.2963C281.529 79.2963 282.537 79.4702 283.443 79.818C284.358 80.1659 285.163 80.6693 285.856 81.3284L285.204 82.5915Z" fill="#00A39D"/>
<path d="M293.166 99.1914H290.475V79.5158H293.166V99.1914Z" fill="#00A39D"/>
<path d="M309.186 91.8869L306.066 83.8821C305.973 83.6441 305.876 83.3695 305.774 83.0583C305.673 82.7379 305.575 82.3992 305.483 82.0422C305.289 82.7837 305.09 83.4015 304.887 83.8958L301.766 91.8869H309.186ZM314.79 99.1914H312.709C312.469 99.1914 312.275 99.1319 312.127 99.013C311.979 98.894 311.868 98.743 311.794 98.5599L309.935 93.8092H301.017L299.158 98.5599C299.103 98.7246 298.996 98.8711 298.839 98.9993C298.682 99.1274 298.488 99.1914 298.256 99.1914H296.176L304.124 79.5158H306.842L314.79 99.1914Z" fill="#00A39D"/>
<path d="M27.9843 86.6979C30.1544 86.6979 31.9196 86.4196 33.28 85.8629C34.6727 85.3063 35.7578 84.5859 36.5351 83.7018C37.3125 82.8177 37.8469 81.819 38.1384 80.7057C38.4299 79.5924 38.5756 78.4627 38.5756 77.3166C38.5756 76.0069 38.3975 74.8281 38.0412 73.7803C37.7173 72.7324 37.1343 71.8483 36.2922 71.1279C35.4825 70.4075 34.3974 69.8509 33.0371 69.458C31.6767 69.0651 29.9601 68.8686 27.8872 68.8686H16.4214V86.6979H27.9843ZM16.4214 40.0862V57.7682H24.9721C26.7859 57.7682 28.4216 57.6372 29.8791 57.3753C31.3366 57.1133 32.5674 56.6549 33.5715 56C34.608 55.3452 35.3853 54.4447 35.9035 53.2986C36.4541 52.1525 36.7295 50.7118 36.7295 48.9763C36.7295 47.2736 36.5189 45.8656 36.0979 44.7523C35.6768 43.6063 35.029 42.6894 34.1545 42.0018C33.28 41.3141 32.1626 40.823 30.8022 40.5283C29.4743 40.2336 27.8872 40.0862 26.041 40.0862H16.4214ZM26.041 27.6598C30.9318 27.6598 35.0938 28.1182 38.5271 29.035C41.9603 29.9518 44.762 31.2453 46.9321 32.9153C49.1022 34.5852 50.673 36.6153 51.6447 39.0057C52.6488 41.396 53.1508 44.0647 53.1508 47.0117C53.1508 48.6162 52.9241 50.1715 52.4706 51.6777C52.0172 53.1512 51.3046 54.5429 50.333 55.8527C49.3613 57.1297 48.1143 58.3085 46.592 59.389C45.0697 60.4696 43.2397 61.4028 41.102 62.1887C45.7661 63.3348 49.2155 65.1848 51.4504 67.7389C53.6852 70.293 54.8027 73.6001 54.8027 77.6604C54.8027 80.7057 54.2197 83.5381 53.0537 86.1576C51.8876 88.7772 50.171 91.0693 47.9038 93.034C45.6689 94.9659 42.8996 96.4885 39.5959 97.6018C36.2922 98.6824 32.5188 99.2227 28.2758 99.2227H0V27.6598H26.041Z" fill="#00A39D"/>
<path d="M105.247 42.2558C104.761 43.0408 104.243 43.6295 103.692 44.022C103.174 44.4145 102.494 44.6107 101.652 44.6107C100.907 44.6107 100.097 44.3818 99.2224 43.9238C98.3803 43.4333 97.4086 42.8936 96.3074 42.3049C95.2385 41.7161 94.0078 41.1928 92.615 40.735C91.2223 40.2443 89.6352 39.999 87.8538 39.999C84.7768 39.999 82.4772 40.6695 80.9549 42.0105C79.465 43.3188 78.72 45.1013 78.72 47.3581C78.72 48.7972 79.1735 49.991 80.0804 50.9395C80.9873 51.888 82.1695 52.7057 83.627 53.3925C85.1169 54.0794 86.8011 54.7172 88.6797 55.3059C90.5907 55.8619 92.534 56.4997 94.5098 57.2193C96.4855 57.9061 98.4127 58.7238 100.291 59.6723C102.202 60.6208 103.886 61.831 105.344 63.3028C106.834 64.7746 108.032 66.5735 108.939 68.6994C109.846 70.7927 110.3 73.3275 110.3 76.3038C110.3 79.6072 109.733 82.698 108.599 85.5762C107.466 88.4545 105.814 90.9729 103.644 93.1316C101.506 95.2575 98.85 96.9419 95.6758 98.1848C92.534 99.395 88.955 100 84.9388 100C82.7363 100 80.4852 99.7711 78.1856 99.3132C75.9183 98.8553 73.7159 98.2175 71.5782 97.3998C69.4405 96.5494 67.4323 95.5519 65.5538 94.4071C63.6752 93.2624 62.0395 91.9868 60.6468 90.5804L65.5052 82.8288C65.8939 82.2728 66.3959 81.8149 67.0113 81.4551C67.6591 81.0627 68.3554 80.8664 69.1004 80.8664C70.0721 80.8664 71.0438 81.1772 72.0154 81.7986C73.0195 82.42 74.1369 83.1069 75.3677 83.8591C76.6309 84.6114 78.0722 85.2982 79.6917 85.9196C81.3112 86.5411 83.2221 86.8518 85.4246 86.8518C88.4044 86.8518 90.7202 86.1977 92.3721 84.8894C94.024 83.5484 94.8499 81.4388 94.8499 78.5606C94.8499 76.8925 94.3964 75.5352 93.4895 74.4886C92.5826 73.4419 91.3842 72.5752 89.8943 71.8884C88.4368 71.2015 86.7688 70.5964 84.8902 70.0731C83.0116 69.5498 81.0844 68.9774 79.1087 68.356C77.1329 67.7018 75.2058 66.9169 73.3272 66.0011C71.4486 65.0526 69.7644 63.8261 68.2745 62.3216C66.817 60.7843 65.6347 58.8873 64.7278 56.6305C63.8209 54.341 63.3675 51.5282 63.3675 48.1921C63.3675 45.5102 63.9019 42.8936 64.9708 40.3424C66.0396 37.7913 67.6105 35.5182 69.6834 33.5231C71.7563 31.5279 74.2989 29.9416 77.3111 28.7641C80.3233 27.554 83.7727 26.9489 87.6595 26.9489C89.8295 26.9489 91.9348 27.1288 93.9754 27.4886C96.0483 27.8156 98.0078 28.3226 99.854 29.0095C101.7 29.6636 103.417 30.4649 105.004 31.4135C106.623 32.3292 108.065 33.3759 109.328 34.5533L105.247 42.2558Z" fill="#00A39D"/>
<path fill-rule="evenodd" clip-rule="evenodd" d="M163.94 24.6998C151.331 23.4716 146.898 30.4143 144.424 33.8482C141.27 20.1198 135.935 21.2023 130.228 17.7439C138.477 12.9562 140.784 5.51281 140.557 0C148.636 5.92374 154.27 5.2881 161.247 3.36725C157.775 13.7269 159.967 16.6509 163.94 24.6998Z" fill="#F8AD3C"/>
<path d="M137.569 99.2525H120.493V26.0697C131.179 27.5175 137.586 36.3557 137.569 45.7102V99.2525Z" fill="#00A39D"/>
</svg>
