<svg width="363" height="77" viewBox="0 0 363 77" fill="none" xmlns="http://www.w3.org/2000/svg">
<path d="M1.25 43V39.7969L4.29687 39.2109V18.3711L1.25 17.7852V14.5625H12.0508L20.0977 34.7578H20.2148L28.0078 14.5625H38.8672V17.7852L35.8008 18.3711V39.2109L38.8672 39.7969V43H27.4219V39.7969L30.6445 39.2109V33.1758L30.7227 20.5391L30.625 20.5195L21.9531 42.4727H18.0273L9.14062 20.6563L9.02343 20.6758L9.33593 32.707V39.2109L12.6953 39.7969V43H1.25Z" fill="white"/>
<path d="M55.0781 43.4102C52.8776 43.4102 50.9375 43.026 49.2578 42.2578C47.5911 41.4766 46.2891 40.3503 45.3516 38.8789C44.4141 37.3945 43.9453 35.6042 43.9453 33.5078V18.3711L40.8984 17.7852V14.5625H52.3242V17.7852L49.2578 18.3711V33.5078C49.2578 34.7969 49.4922 35.8711 49.9609 36.7305C50.4427 37.5898 51.1198 38.2344 51.9922 38.6641C52.8646 39.0938 53.8932 39.3086 55.0781 39.3086C56.2891 39.3086 57.3372 39.1003 58.2227 38.6836C59.1081 38.2539 59.7852 37.6094 60.2539 36.75C60.7357 35.8906 60.9766 34.8099 60.9766 33.5078V18.3711L57.9102 17.7852V14.5625H69.3555V17.7852L66.2891 18.3711V33.5078C66.2891 35.6172 65.8203 37.4141 64.8828 38.8984C63.9453 40.3698 62.6367 41.4896 60.957 42.2578C59.2773 43.026 57.3177 43.4102 55.0781 43.4102Z" fill="white"/>
<path d="M71.4258 43V39.7969L74.4922 39.2109V18.3711L71.4258 17.7852V14.5625H82.8711V17.7852L79.8047 18.3711V26.9258H91.8164V18.3711L88.75 17.7852V14.5625H100.195V17.7852L97.1289 18.3711V39.2109L100.195 39.7969V43H88.75V39.7969L91.8164 39.2109V31.0273H79.8047V39.2109L82.8711 39.7969V43H71.4258Z" fill="white"/>
<path d="M100.84 43V39.7969L102.891 39.5039L112.129 14.5625H117.422L126.582 39.5039L128.613 39.7969V43H119.258V39.7969L121.27 39.4258L119.883 35.2461H109.59L108.203 39.4258L110.195 39.7969V43H100.84ZM110.898 31.2422H118.574L115.078 21.125L114.805 20.3047H114.688L114.395 21.1641L110.898 31.2422Z" fill="white"/>
<path d="M130.781 43V39.7969L133.828 39.2109V18.3711L130.781 17.7852V14.5625H141.582L149.629 34.7578H149.746L157.539 14.5625H168.398V17.7852L165.332 18.3711V39.2109L168.398 39.7969V43H156.953V39.7969L160.176 39.2109V33.1758L160.254 20.5391L160.156 20.5195L151.484 42.4727H147.559L138.672 20.6563L138.555 20.6758L138.867 32.707V39.2109L142.227 39.7969V43H130.781Z" fill="white"/>
<path d="M170.781 43V39.7969L173.828 39.2109V18.3711L170.781 17.7852V14.5625H181.582L189.629 34.7578H189.746L197.539 14.5625H208.398V17.7852L205.332 18.3711V39.2109L208.398 39.7969V43H196.953V39.7969L200.176 39.2109V33.1758L200.254 20.5391L200.156 20.5195L191.484 42.4727H187.559L178.672 20.6563L178.555 20.6758L178.867 32.707V39.2109L182.227 39.7969V43H170.781Z" fill="white"/>
<path d="M208.965 43V39.7969L211.016 39.5039L220.254 14.5625H225.547L234.707 39.5039L236.738 39.7969V43H227.383V39.7969L229.395 39.4258L228.008 35.2461H217.715L216.328 39.4258L218.32 39.7969V43H208.965ZM219.023 31.2422H226.699L223.203 21.125L222.93 20.3047H222.812L222.52 21.1641L219.023 31.2422Z" fill="white"/>
<path d="M238.848 43V39.7969L241.934 39.1523V18.4297L238.848 17.7852V14.5625H251.055C253.594 14.5625 255.82 15.1615 257.734 16.3594C259.661 17.5573 261.165 19.2044 262.246 21.3008C263.327 23.3971 263.867 25.806 263.867 28.5273V29.0547C263.867 31.737 263.333 34.1328 262.266 36.2422C261.211 38.3385 259.727 39.9922 257.812 41.2031C255.911 42.401 253.691 43 251.152 43H238.848ZM247.246 38.918H250.879C252.507 38.918 253.887 38.4883 255.02 37.6289C256.152 36.7695 257.018 35.5977 257.617 34.1133C258.229 32.6289 258.535 30.9427 258.535 29.0547V28.4883C258.535 26.5742 258.229 24.8815 257.617 23.4102C257.018 21.9258 256.152 20.7669 255.02 19.9336C253.887 19.0872 252.507 18.6641 250.879 18.6641H247.246V38.918Z" fill="white"/>
<path d="M266.426 43V39.7969L269.492 39.2109V18.3711L266.426 17.7852V14.5625H277.871V17.7852L274.805 18.3711V39.2109L277.871 39.7969V43H266.426Z" fill="white"/>
<path d="M287.852 43V39.7969L290.918 39.2109V33.1172L282.422 18.1758L279.766 17.7852V14.5625H290.781V17.7852L288.262 18.1367L293.262 27.668L293.691 28.5469L293.789 28.5273L294.219 27.6875L299.688 18.1367L296.523 17.7852V14.5625H307.324V17.7852L304.59 18.1758L296.211 32.707V39.2109L299.297 39.7969V43H287.852Z" fill="white"/>
<path d="M304.121 43V39.7969L306.172 39.5039L315.41 14.5625H320.703L329.863 39.5039L331.895 39.7969V43H322.539V39.7969L324.551 39.4258L323.164 35.2461H312.871L311.484 39.4258L313.477 39.7969V43H304.121ZM314.18 31.2422H321.855L318.359 21.125L318.086 20.3047H317.969L317.676 21.1641L314.18 31.2422Z" fill="white"/>
<path d="M334.004 43V39.7969L337.07 39.2109V18.3711L334.004 17.7852V14.5625H345.449V17.7852L342.383 18.3711V26.9258H354.395V18.3711L351.328 17.7852V14.5625H362.773V17.7852L359.707 18.3711V39.2109L362.773 39.7969V43H351.328V39.7969L354.395 39.2109V31.0273H342.383V39.2109L345.449 39.7969V43H334.004Z" fill="white"/>
<path d="M12.5195 76.4102C10.5013 76.4102 8.63932 76.1758 6.93359 75.707C5.24088 75.2253 3.58724 74.418 1.97265 73.2852V66.5664H6.07422L6.69922 70.707C7.33724 71.2018 8.16406 71.599 9.17968 71.8984C10.2083 72.1979 11.3216 72.3477 12.5195 72.3477C13.6133 72.3477 14.5312 72.1979 15.2734 71.8984C16.0286 71.5859 16.6016 71.1497 16.9922 70.5899C17.3828 70.0169 17.5781 69.3529 17.5781 68.5977C17.5781 67.8685 17.4023 67.2305 17.0508 66.6836C16.6992 66.1237 16.1198 65.6224 15.3125 65.1797C14.5182 64.724 13.4375 64.2943 12.0703 63.8906C9.88281 63.2786 8.05989 62.582 6.60156 61.8008C5.14323 61.0195 4.04948 60.082 3.32031 58.9883C2.60416 57.8815 2.24609 56.5664 2.24609 55.043C2.24609 53.5195 2.66276 52.1719 3.49609 51C4.34245 49.8151 5.50781 48.8841 6.99218 48.207C8.48958 47.53 10.2083 47.1849 12.1484 47.1719C14.3099 47.1458 16.2174 47.4128 17.8711 47.9727C19.5247 48.5326 20.9375 49.2878 22.1094 50.2383V56.4883H18.1055L17.3828 52.5625C16.862 52.2109 16.1784 51.9115 15.332 51.6641C14.4857 51.4167 13.5091 51.293 12.4023 51.293C11.4518 51.293 10.612 51.4427 9.88281 51.7422C9.15364 52.0286 8.58073 52.4518 8.16406 53.0117C7.74739 53.5716 7.53906 54.2422 7.53906 55.0234C7.53906 55.7005 7.72135 56.293 8.08593 56.8008C8.45052 57.3086 9.0625 57.7773 9.92187 58.207C10.7812 58.6367 11.9466 59.0794 13.418 59.5352C16.5299 60.3815 18.8867 61.5273 20.4883 62.9727C22.1029 64.405 22.9102 66.2669 22.9102 68.5586C22.9102 70.1471 22.474 71.5339 21.6016 72.7188C20.7422 73.8906 19.5312 74.8021 17.9687 75.4531C16.4193 76.0912 14.6029 76.4102 12.5195 76.4102Z" fill="white"/>
<path d="M38.1055 76.4102C36.2044 76.4102 34.4792 76.0586 32.9297 75.3555C31.3802 74.6393 30.0456 73.6367 28.9258 72.3477C27.819 71.0456 26.9661 69.5221 26.3672 67.7774C25.7682 66.0195 25.4687 64.0925 25.4687 61.9961V61.5664C25.4687 59.4831 25.7682 57.569 26.3672 55.8242C26.9661 54.0664 27.819 52.543 28.9258 51.2539C30.0456 49.9518 31.3737 48.9427 32.9102 48.2266C34.4596 47.5104 36.1849 47.1523 38.0859 47.1523C40.026 47.1523 41.7708 47.5104 43.3203 48.2266C44.8828 48.9427 46.224 49.9518 47.3437 51.2539C48.4635 52.543 49.3164 54.0664 49.9023 55.8242C50.5013 57.569 50.8008 59.4831 50.8008 61.5664V61.9961C50.8008 64.0925 50.5013 66.0195 49.9023 67.7774C49.3164 69.5221 48.4635 71.0456 47.3437 72.3477C46.237 73.6367 44.9023 74.6393 43.3398 75.3555C41.7773 76.0586 40.0325 76.4102 38.1055 76.4102ZM38.1055 72.2305C39.7721 72.2305 41.1523 71.8073 42.2461 70.9609C43.3398 70.1016 44.1536 68.9037 44.6875 67.3672C45.2344 65.8307 45.5078 64.0404 45.5078 61.9961V61.5273C45.5078 59.5091 45.2344 57.7383 44.6875 56.2148C44.1406 54.6914 43.3138 53.5 42.207 52.6406C41.1133 51.7813 39.7396 51.3516 38.0859 51.3516C36.4714 51.3516 35.1237 51.7813 34.043 52.6406C32.9622 53.487 32.1484 54.6719 31.6016 56.1953C31.0677 57.7188 30.8008 59.4961 30.8008 61.5273V61.9961C30.8008 64.0273 31.0677 65.8177 31.6016 67.3672C32.1484 68.9037 32.9622 70.1016 34.043 70.9609C35.1367 71.8073 36.4909 72.2305 38.1055 72.2305Z" fill="white"/>
<path d="M60.6055 68.7734L57.8516 65.5899L71.6797 51.1172L71.7188 51.0391L69.0625 50.7852V47.5625H80.2148V50.7852L77.5391 51.3125L60.6055 68.7734ZM53.2227 76V72.7969L56.2891 72.2109V51.3711L53.2227 50.7852V47.5625H64.5508V50.7852L61.6016 51.3711V72.2109L64.5508 72.7969V76H53.2227ZM69.6875 76V72.7969L72.2852 72.543V72.5234L64.9219 62.3672L68.3594 58.7539L78.4766 72.3086L81.2305 72.7969V76H69.6875Z" fill="white"/>
<path d="M82.9492 76V72.7969L85 72.5039L94.2383 47.5625H99.5312L108.691 72.5039L110.723 72.7969V76H101.367V72.7969L103.379 72.4258L101.992 68.2461H91.6992L90.3125 72.4258L92.3047 72.7969V76H82.9492ZM93.0078 64.2422H100.684L97.1875 54.125L96.9141 53.3047H96.7969L96.5039 54.1641L93.0078 64.2422Z" fill="white"/>
<path d="M112.832 76V72.7969L115.898 72.2109V51.3711L112.832 50.7852V47.5625H126.152C128.301 47.5625 130.143 47.8945 131.68 48.5586C133.229 49.2227 134.408 50.1797 135.215 51.4297C136.035 52.6797 136.445 54.1771 136.445 55.9219C136.445 57.5885 136.042 59.0599 135.234 60.3359C134.427 61.612 133.294 62.6146 131.836 63.3438C130.391 64.0599 128.711 64.4245 126.797 64.4375L121.211 64.457V72.2109L124.277 72.7969V76H112.832ZM131.23 76L126.113 63.3047L130.996 62.3086L135.371 72.25L137.695 72.7578V76H131.23ZM121.211 60.3555H125.977C127.734 60.3555 129.036 59.9974 129.883 59.2813C130.729 58.5521 131.152 57.4974 131.152 56.1172C131.152 54.763 130.736 53.6823 129.902 52.875C129.069 52.0677 127.819 51.6641 126.152 51.6641H121.211V60.3555Z" fill="white"/>
<path d="M139.98 76V72.7969L142.031 72.5039L151.27 47.5625H156.562L165.723 72.5039L167.754 72.7969V76H158.398V72.7969L160.41 72.4258L159.023 68.2461H148.73L147.344 72.4258L149.336 72.7969V76H139.98ZM150.039 64.2422H157.715L154.219 54.125L153.945 53.3047H153.828L153.535 54.1641L150.039 64.2422Z" fill="white"/>
<path d="M179.18 76.4102C177.292 76.4102 175.625 76.0781 174.18 75.4141C172.734 74.75 171.589 73.7409 170.742 72.3867C169.909 71.0326 169.453 69.3203 169.375 67.25L169.414 67.1328H174.414C174.505 69.0078 174.922 70.3294 175.664 71.0977C176.419 71.8659 177.441 72.25 178.73 72.25C179.564 72.25 180.286 72.0677 180.898 71.7031C181.523 71.3385 182.005 70.8112 182.344 70.1211C182.695 69.418 182.871 68.5651 182.871 67.5625V51.3711L179.043 50.8047V47.5625H191.23V50.7852L188.164 51.3711V67.5625C188.164 69.3594 187.812 70.9219 187.109 72.25C186.419 73.5781 185.41 74.6068 184.082 75.3359C182.754 76.0521 181.12 76.4102 179.18 76.4102Z" fill="white"/>
<path d="M191.074 76V72.7969L193.125 72.5039L202.363 47.5625H207.656L216.816 72.5039L218.848 72.7969V76H209.492V72.7969L211.504 72.4258L210.117 68.2461H199.824L198.438 72.4258L200.43 72.7969V76H191.074ZM201.133 64.2422H208.809L205.312 54.125L205.039 53.3047H204.922L204.629 54.1641L201.133 64.2422Z" fill="white"/>
<path d="M7.356 3.36C7.356 3.872 7.236 4.34 6.996 4.764C6.764 5.18 6.408 5.516 5.928 5.772C5.456 6.02 4.876 6.144 4.188 6.144H3.024V9H0.671997V0.540004H4.188C4.868 0.540004 5.444 0.660005 5.916 0.900005C6.396 1.14 6.756 1.472 6.996 1.896C7.236 2.32 7.356 2.808 7.356 3.36ZM3.96 4.272C4.624 4.272 4.956 3.968 4.956 3.36C4.956 2.744 4.624 2.436 3.96 2.436H3.024V4.272H3.96Z" fill="white"/>
<path d="M13.6529 7.62001H10.6529L10.1969 9H7.7249L10.8089 0.540004H13.5209L16.5929 9H14.1089L13.6529 7.62001ZM13.0649 5.82L12.1529 3.084L11.2529 5.82H13.0649Z" fill="white"/>
<path d="M25.1955 9H22.8435L19.7115 4.272V9H17.3595V0.540004H19.7115L22.8435 5.328V0.540004H25.1955V9Z" fill="white"/>
<path d="M32.9073 0.540004V2.412H30.6513V9H28.2993V2.412H26.0673V0.540004H32.9073Z" fill="white"/>
<path d="M36.1295 0.540004V9H33.7775V0.540004H36.1295Z" fill="white"/>
<path d="M45.1177 7.62001H42.1177L41.6617 9H39.1897L42.2737 0.540004H44.9857L48.0577 9H45.5737L45.1177 7.62001ZM44.5297 5.82L43.6177 3.084L42.7177 5.82H44.5297Z" fill="white"/>
<path d="M52.0163 9.08401C51.0323 9.08401 50.2243 8.852 49.5923 8.388C48.9603 7.916 48.6203 7.24401 48.5723 6.372H51.0803C51.1043 6.668 51.1923 6.884 51.3443 7.02C51.4963 7.156 51.6923 7.224 51.9323 7.224C52.1483 7.224 52.3243 7.172 52.4603 7.068C52.6043 6.956 52.6763 6.804 52.6763 6.612C52.6763 6.364 52.5603 6.17201 52.3283 6.03601C52.0963 5.90001 51.7203 5.748 51.2003 5.58C50.6483 5.396 50.2003 5.22 49.8563 5.052C49.5203 4.876 49.2243 4.624 48.9683 4.296C48.7203 3.96 48.5963 3.524 48.5963 2.988C48.5963 2.444 48.7323 1.98 49.0043 1.596C49.2763 1.204 49.6523 0.908005 50.1323 0.708004C50.6123 0.508005 51.1563 0.408005 51.7643 0.408005C52.7483 0.408005 53.5323 0.640005 54.1163 1.104C54.7083 1.56 55.0243 2.20401 55.0643 3.03601H52.5083C52.5003 2.78 52.4203 2.588 52.2683 2.46C52.1243 2.332 51.9363 2.268 51.7043 2.268C51.5283 2.268 51.3843 2.32 51.2723 2.424C51.1603 2.528 51.1043 2.676 51.1043 2.868C51.1043 3.028 51.1643 3.168 51.2843 3.288C51.4123 3.4 51.5683 3.5 51.7523 3.588C51.9363 3.668 52.2083 3.772 52.5683 3.9C53.1043 4.084 53.5443 4.268 53.8883 4.452C54.2403 4.628 54.5403 4.88 54.7883 5.208C55.0443 5.528 55.1723 5.936 55.1723 6.432C55.1723 6.936 55.0443 7.388 54.7883 7.788C54.5403 8.188 54.1763 8.504 53.6963 8.736C53.2243 8.968 52.6643 9.08401 52.0163 9.08401Z" fill="white"/>
<path d="M58.5697 0.540004V5.448C58.5697 5.904 58.6737 6.256 58.8817 6.504C59.0977 6.752 59.4217 6.87601 59.8537 6.87601C60.2857 6.87601 60.6097 6.752 60.8257 6.504C61.0497 6.248 61.1617 5.896 61.1617 5.448V0.540004H63.5137V5.448C63.5137 6.224 63.3497 6.888 63.0217 7.44C62.6937 7.984 62.2457 8.39601 61.6777 8.67601C61.1177 8.94801 60.4937 9.08401 59.8057 9.08401C59.1177 9.08401 58.5017 8.94801 57.9577 8.67601C57.4217 8.39601 56.9977 7.984 56.6857 7.44C56.3817 6.896 56.2297 6.232 56.2297 5.448V0.540004H58.5697Z" fill="white"/>
<path d="M72.3807 0.540004V9H70.0287V5.604H67.1607V9H64.8087V0.540004H67.1607V3.72H70.0287V0.540004H72.3807Z" fill="white"/>
<path d="M79.0787 7.62001H76.0787L75.6227 9H73.1507L76.2347 0.540004H78.9467L82.0187 9H79.5347L79.0787 7.62001ZM78.4907 5.82L77.5787 3.084L76.6787 5.82H78.4907Z" fill="white"/>
<path d="M90.6213 9H88.2693L85.1373 4.272V9H82.7853V0.540004H85.1373L88.2693 5.328V0.540004H90.6213V9Z" fill="white"/>
</svg>
